<svg viewBox="0 0 804 804" fill="none" xmlns="http://www.w3.org/2000/svg">
<path d="M633.56 353.39C636.02 286.787 612.093 219.379 559.351 187.3C533.318 171.461 502.878 162.183 472.423 163.55C439.748 165.013 408.987 178.311 378.178 189.278C347.368 200.244 314.002 209.008 282.244 201.225C259.266 195.597 239.054 181.688 216.316 175.352C126.735 150.412 48.7307 252.054 92.5647 332.856C103.322 352.667 119.901 368.554 133.842 386.29C147.783 404.026 159.474 425.445 157.592 447.908C155.984 466.513 145.436 483.075 141.046 501.214C132.652 535.962 149.311 574.185 178.11 595.362C206.91 616.539 245.759 621.476 280.492 612.761C315.224 604.045 345.777 582.723 369.848 556.32C382.712 542.169 395.319 525.639 413.827 520.831C431.595 516.232 449.911 523.726 467.936 527.167C484.601 530.249 501.72 529.9 518.246 526.14C534.771 522.379 550.356 515.288 564.046 505.298C607.543 473.122 631.341 413.578 633.56 353.39Z" fill="#FBA81F"/>
<path opacity="0.7" d="M633.56 353.39C636.02 286.787 612.093 219.379 559.351 187.3C533.318 171.461 502.878 162.183 472.423 163.55C439.748 165.013 408.987 178.311 378.178 189.278C347.368 200.244 314.002 209.008 282.244 201.225C259.266 195.597 239.054 181.688 216.316 175.352C126.735 150.412 48.7307 252.054 92.5647 332.856C103.322 352.667 119.901 368.554 133.842 386.29C147.783 404.026 159.474 425.445 157.592 447.908C155.984 466.513 145.436 483.075 141.046 501.214C132.652 535.962 149.311 574.185 178.11 595.362C206.91 616.539 245.759 621.476 280.492 612.761C315.224 604.045 345.777 582.723 369.848 556.32C382.712 542.169 395.319 525.639 413.827 520.831C431.595 516.232 449.911 523.726 467.936 527.167C484.601 530.249 501.72 529.9 518.246 526.14C534.771 522.379 550.356 515.288 564.046 505.298C607.543 473.122 631.341 413.578 633.56 353.39Z" fill="white"/>
<path d="M347.046 722.314C467.123 722.314 564.464 702.847 564.464 678.833C564.464 654.82 467.123 635.353 347.046 635.353C226.97 635.353 129.628 654.82 129.628 678.833C129.628 702.847 226.97 722.314 347.046 722.314Z" fill="#FBA81F"/>
<path opacity="0.5" d="M347.046 722.314C467.123 722.314 564.464 702.847 564.464 678.833C564.464 654.82 467.123 635.353 347.046 635.353C226.97 635.353 129.628 654.82 129.628 678.833C129.628 702.847 226.97 722.314 347.046 722.314Z" fill="white"/>
<mask id="mask0_67_766" style="mask-type:alpha" maskUnits="userSpaceOnUse" x="410" y="99" width="314" height="195">
<path d="M713.351 100.42H421.095C415.74 100.42 411.398 104.761 411.398 110.116V282.928C411.398 288.283 415.74 292.624 421.095 292.624H713.351C718.706 292.624 723.047 288.283 723.047 282.928V110.116C723.047 104.761 718.706 100.42 713.351 100.42Z" fill="white" stroke="#263238" stroke-width="1.608" stroke-linecap="round" stroke-linejoin="round"/>
</mask>
<g mask="url(#mask0_67_766)">
<path d="M713.351 100.42H421.095C415.74 100.42 411.398 104.761 411.398 110.116V282.928C411.398 288.283 415.74 292.624 421.095 292.624H713.351C718.706 292.624 723.047 288.283 723.047 282.928V110.116C723.047 104.761 718.706 100.42 713.351 100.42Z" fill="white" stroke="#263238" stroke-width="1.608" stroke-linecap="round" stroke-linejoin="round"/>
<path d="M421.095 100.42L713.203 100.42C715.761 100.42 718.215 101.436 720.025 103.245C721.834 105.055 722.851 107.509 722.851 110.068V120.134H411.399V110.116C411.392 108.841 411.639 107.577 412.124 106.398C412.609 105.218 413.323 104.147 414.224 103.245C415.126 102.344 416.197 101.63 417.377 101.145C418.556 100.66 419.82 100.413 421.095 100.42Z" fill="#263238" stroke="#263238" stroke-width="1.608" stroke-linecap="round" stroke-linejoin="round"/>
<path d="M717.851 106H416.851V112H717.851V106Z" fill="white" stroke="#263238" stroke-width="1.608" stroke-linecap="round" stroke-linejoin="round"/>
<path d="M557.428 206.801H628.308" stroke="#263238" stroke-width="1.608" stroke-linecap="round" stroke-linejoin="round"/>
<path d="M557.428 215.951H628.308" stroke="#263238" stroke-width="1.608" stroke-linecap="round" stroke-linejoin="round"/>
<path d="M557.428 225.1H628.308" stroke="#263238" stroke-width="1.608" stroke-linecap="round" stroke-linejoin="round"/>
<path d="M557.428 234.25H628.308" stroke="#263238" stroke-width="1.608" stroke-linecap="round" stroke-linejoin="round"/>
<path d="M557.428 243.399H628.308" stroke="#263238" stroke-width="1.608" stroke-linecap="round" stroke-linejoin="round"/>
<path d="M557.428 252.565H628.308" stroke="#263238" stroke-width="1.608" stroke-linecap="round" stroke-linejoin="round"/>
<path d="M557.428 261.714H628.308" stroke="#263238" stroke-width="1.608" stroke-linecap="round" stroke-linejoin="round"/>
<path d="M557.428 270.864H628.308" stroke="#263238" stroke-width="1.608" stroke-linecap="round" stroke-linejoin="round"/>
<path d="M557.428 280.013H628.308" stroke="#263238" stroke-width="1.608" stroke-linecap="round" stroke-linejoin="round"/>
<path d="M640.77 206.801H711.65" stroke="#263238" stroke-width="1.608" stroke-linecap="round" stroke-linejoin="round"/>
<path d="M640.77 215.951H711.65" stroke="#263238" stroke-width="1.608" stroke-linecap="round" stroke-linejoin="round"/>
<path d="M640.77 225.1H711.65" stroke="#263238" stroke-width="1.608" stroke-linecap="round" stroke-linejoin="round"/>
<path d="M640.77 234.25H711.65" stroke="#263238" stroke-width="1.608" stroke-linecap="round" stroke-linejoin="round"/>
<path d="M640.77 243.399H711.65" stroke="#263238" stroke-width="1.608" stroke-linecap="round" stroke-linejoin="round"/>
<path d="M640.77 252.565H711.65" stroke="#263238" stroke-width="1.608" stroke-linecap="round" stroke-linejoin="round"/>
<path d="M640.77 261.714H711.65" stroke="#263238" stroke-width="1.608" stroke-linecap="round" stroke-linejoin="round"/>
<path d="M640.77 270.864H711.65" stroke="#263238" stroke-width="1.608" stroke-linecap="round" stroke-linejoin="round"/>
<path d="M640.77 280.013H711.65" stroke="#263238" stroke-width="1.608" stroke-linecap="round" stroke-linejoin="round"/>
<path d="M604.831 148.865C605.181 147.778 605.365 146.645 605.378 145.504C605.378 141.339 601.149 141.098 597 141.098H595.955V140.117H614.061V141.098C609.35 141.098 607.629 144.105 606.166 148.559L596.518 177.359C595.794 179.497 595.183 181.089 592.916 181.089H592.723L584.233 153.576L576.338 177.423C575.598 179.561 574.987 181.153 572.72 181.153H572.543L560.193 141.098H555.852V140.117H571.739V141.098H567.22L576.386 172.647H576.756L583.67 151.695L580.454 141.179H576.112V140.117H592.016V141.098H587.497L596.663 172.647H597.016L604.831 148.865Z" fill="#FBA81F"/>
<path d="M712.15 131H639.211V196.928H712.15V131Z" fill="#FBA81F" stroke="#263238" stroke-width="3.216" stroke-linecap="round" stroke-linejoin="round"/>
<path d="M712.149 158.561C709.703 158.7 707.272 159.039 704.881 159.574C693.802 161.986 690.908 177.889 678.381 177.889C667.286 177.889 666.337 162.951 650.434 161.021C646.565 160.412 642.603 161.114 639.178 163.015V196.928H712.149V158.561Z" fill="#263238" stroke="#263238" stroke-width="1.608" stroke-linecap="round" stroke-linejoin="round"/>
<path d="M663.444 146.083C663.447 147.706 662.968 149.294 662.068 150.645C661.168 151.996 659.888 153.05 658.389 153.672C656.889 154.295 655.239 154.459 653.647 154.143C652.055 153.827 650.592 153.046 649.444 151.898C648.296 150.75 647.515 149.287 647.199 147.695C646.883 146.103 647.047 144.452 647.669 142.953C648.292 141.454 649.346 140.173 650.697 139.274C652.048 138.374 653.636 137.895 655.259 137.898C657.43 137.898 659.511 138.76 661.046 140.295C662.581 141.83 663.444 143.912 663.444 146.083Z" fill="white" stroke="#263238" stroke-width="1.608" stroke-linecap="round" stroke-linejoin="round"/>
<rect x="411.851" y="120" width="132" height="172" fill="#263238"/>
<path d="M440.112 146.254H501.769" stroke="white" stroke-width="1.60231" stroke-linecap="round" stroke-linejoin="round"/>
<path d="M440.112 164.704H472.302" stroke="white" stroke-width="1.60231" stroke-linecap="round" stroke-linejoin="round"/>
<path d="M440.112 154.554H470.123" stroke="#FFC100" stroke-width="1.60231" stroke-linecap="round" stroke-linejoin="round"/>
<path d="M476.668 154.554H492.491" stroke="#FFC100" stroke-width="1.60231" stroke-linecap="round" stroke-linejoin="round"/>
<path d="M501.768 154.554H517.59" stroke="#FFC100" stroke-width="1.60231" stroke-linecap="round" stroke-linejoin="round"/>
<path d="M440.112 172.548H470.123" stroke="white" stroke-width="1.60231" stroke-linecap="round" stroke-linejoin="round"/>
<path d="M476.668 172.548H492.491" stroke="white" stroke-width="1.60231" stroke-linecap="round" stroke-linejoin="round"/>
<path d="M501.768 172.548H517.59" stroke="#FFC100" stroke-width="1.60231" stroke-linecap="round" stroke-linejoin="round"/>
<path d="M440.112 190.534H470.123" stroke="white" stroke-width="1.60231" stroke-linecap="round" stroke-linejoin="round"/>
<path d="M476.668 190.534H492.491" stroke="#FFC100" stroke-width="1.60231" stroke-linecap="round" stroke-linejoin="round"/>
<path d="M501.768 190.534H517.59" stroke="white" stroke-width="1.60231" stroke-linecap="round" stroke-linejoin="round"/>
<path d="M458.657 198.377H481.482" stroke="white" stroke-width="1.60231" stroke-linecap="round" stroke-linejoin="round"/>
<path d="M486.465 198.377H498.499" stroke="white" stroke-width="1.60231" stroke-linecap="round" stroke-linejoin="round"/>
<path d="M505.55 198.377H517.591" stroke="white" stroke-width="1.60231" stroke-linecap="round" stroke-linejoin="round"/>
<path d="M458.657 208.063H481.482" stroke="white" stroke-width="1.60231" stroke-linecap="round" stroke-linejoin="round"/>
<path d="M486.465 208.063H498.499" stroke="white" stroke-width="1.60231" stroke-linecap="round" stroke-linejoin="round"/>
<path d="M505.55 208.063H517.591" stroke="white" stroke-width="1.60231" stroke-linecap="round" stroke-linejoin="round"/>
<path d="M440.112 218.67H501.769" stroke="#FFC100" stroke-width="1.60231" stroke-linecap="round" stroke-linejoin="round"/>
<path d="M440.112 237.121H472.302" stroke="white" stroke-width="1.60231" stroke-linecap="round" stroke-linejoin="round"/>
<path d="M440.112 226.97H470.123" stroke="#FFC100" stroke-width="1.60231" stroke-linecap="round" stroke-linejoin="round"/>
<path d="M476.668 226.97H492.491" stroke="white" stroke-width="1.60231" stroke-linecap="round" stroke-linejoin="round"/>
<path d="M501.768 226.97H517.59" stroke="#FFC100" stroke-width="1.60231" stroke-linecap="round" stroke-linejoin="round"/>
<path d="M440.112 244.964H470.123" stroke="#FFC100" stroke-width="1.60231" stroke-linecap="round" stroke-linejoin="round"/>
<path d="M476.668 244.964H492.491" stroke="#FFC100" stroke-width="1.60231" stroke-linecap="round" stroke-linejoin="round"/>
<path d="M501.768 244.964H517.59" stroke="white" stroke-width="1.60231" stroke-linecap="round" stroke-linejoin="round"/>
<path d="M440.112 262.95H470.123" stroke="white" stroke-width="1.60231" stroke-linecap="round" stroke-linejoin="round"/>
<path d="M476.668 262.95H492.491" stroke="#FFC100" stroke-width="1.60231" stroke-linecap="round" stroke-linejoin="round"/>
<path d="M501.768 262.95H517.59" stroke="#FFC100" stroke-width="1.60231" stroke-linecap="round" stroke-linejoin="round"/>
<path d="M458.657 270.793H481.482" stroke="white" stroke-width="1.60231" stroke-linecap="round" stroke-linejoin="round"/>
<path d="M486.465 270.793H498.499" stroke="white" stroke-width="1.60231" stroke-linecap="round" stroke-linejoin="round"/>
<path d="M505.55 270.793H517.591" stroke="white" stroke-width="1.60231" stroke-linecap="round" stroke-linejoin="round"/>
<path d="M458.657 280.479H481.482" stroke="white" stroke-width="1.60231" stroke-linecap="round" stroke-linejoin="round"/>
<path d="M486.465 280.479H498.499" stroke="white" stroke-width="1.60231" stroke-linecap="round" stroke-linejoin="round"/>
<path d="M505.55 280.479H517.591" stroke="white" stroke-width="1.60231" stroke-linecap="round" stroke-linejoin="round"/>
<path d="M441.793 135.182L447.585 132.194V133.059L442.706 135.51L447.585 137.954V138.819L441.793 135.831V135.182Z" fill="white" stroke="white" stroke-width="0.801155" stroke-miterlimit="10"/>
<path d="M451.055 139.348L454.556 130.295H455.357L451.864 139.348H451.055Z" fill="white" stroke="white" stroke-width="0.801155" stroke-miterlimit="10"/>
<path d="M464.627 135.879L458.834 138.851V137.986L463.754 135.542L458.834 133.091V132.226L464.627 135.198V135.879Z" fill="white" stroke="white" stroke-width="0.801155" stroke-miterlimit="10"/>
</g>
<path d="M607.875 171.985L612.864 194.365C612.91 194.513 612.999 194.644 613.12 194.741C613.24 194.839 613.386 194.898 613.54 194.913C613.695 194.928 613.85 194.896 613.986 194.823C614.123 194.75 614.235 194.639 614.308 194.502L617.542 187.694C617.606 187.557 617.708 187.442 617.836 187.363C617.964 187.283 618.113 187.243 618.264 187.247L625.787 187.658C625.946 187.666 626.104 187.624 626.239 187.54C626.375 187.455 626.481 187.331 626.545 187.185C626.608 187.039 626.626 186.876 626.595 186.72C626.564 186.563 626.486 186.42 626.372 186.308L609.175 171.213C609.05 171.096 608.891 171.023 608.722 171.005C608.552 170.986 608.381 171.023 608.235 171.11C608.088 171.198 607.974 171.33 607.909 171.488C607.844 171.645 607.833 171.82 607.875 171.985Z" fill="#263238"/>
<path d="M628.42 191.838H621.684V198.574H628.42V191.838Z" fill="white" stroke="#263238" stroke-width="0.541454" stroke-linecap="round" stroke-linejoin="round"/>
<path d="M622.154 191.304H621.144V192.315H622.154V191.304Z" fill="#263238"/>
<path d="M625.577 191.304H624.566V192.315H625.577V191.304Z" fill="#263238"/>
<path d="M628.855 191.304H627.844V192.315H628.855V191.304Z" fill="#263238"/>
<path d="M622.154 194.712H621.144V195.722H622.154V194.712Z" fill="#263238"/>
<path d="M625.577 194.712H624.566V195.722H625.577V194.712Z" fill="#263238"/>
<path d="M628.855 194.712H627.844V195.722H628.855V194.712Z" fill="#263238"/>
<path d="M622.154 197.989H621.144V199H622.154V197.989Z" fill="#263238"/>
<path d="M625.577 197.989H624.566V199H625.577V197.989Z" fill="#263238"/>
<path d="M628.855 197.989H627.844V199H628.855V197.989Z" fill="#263238"/>
<path d="M568.918 330.975H498.632C495.869 330.975 493.218 332.072 491.264 334.027C489.31 335.981 488.212 338.631 488.212 341.394V378.989C488.212 381.753 489.31 384.403 491.264 386.357C493.218 388.312 495.869 389.409 498.632 389.409H500.787C498.6 394.233 494.355 401.63 487.649 406.02C487.649 406.02 501.912 405.023 516.77 389.409H568.886C571.649 389.409 574.299 388.312 576.254 386.357C578.208 384.403 579.305 381.753 579.305 378.989V341.394C579.305 338.636 578.212 335.991 576.265 334.038C574.318 332.085 571.676 330.983 568.918 330.975Z" fill="#263238" stroke="#263238" stroke-width="1.608" stroke-linecap="round" stroke-linejoin="round"/>
<path d="M521.692 358.857C521.695 357.794 521.383 356.753 520.794 355.867C520.205 354.982 519.366 354.291 518.384 353.882C517.402 353.474 516.321 353.366 515.278 353.573C514.234 353.78 513.276 354.291 512.524 355.044C511.772 355.796 511.26 356.754 511.053 357.797C510.846 358.841 510.954 359.922 511.363 360.904C511.771 361.886 512.462 362.725 513.348 363.314C514.233 363.902 515.274 364.215 516.337 364.212C517.756 364.208 519.116 363.642 520.119 362.639C521.122 361.636 521.688 360.276 521.692 358.857Z" fill="#FBA81F" stroke="#263238" stroke-width="1.608" stroke-linecap="round" stroke-linejoin="round"/>
<path d="M539.91 358.857C539.91 357.798 539.596 356.763 539.008 355.882C538.42 355.002 537.583 354.315 536.605 353.91C535.626 353.505 534.55 353.399 533.511 353.605C532.472 353.812 531.518 354.322 530.769 355.071C530.021 355.82 529.511 356.774 529.304 357.813C529.097 358.851 529.204 359.928 529.609 360.906C530.014 361.885 530.7 362.721 531.581 363.309C532.462 363.898 533.497 364.212 534.556 364.212C535.975 364.208 537.334 363.642 538.337 362.639C539.341 361.636 539.906 360.276 539.91 358.857Z" fill="#FBA81F" stroke="#263238" stroke-width="1.608" stroke-linecap="round" stroke-linejoin="round"/>
<path d="M558.145 358.857C558.148 357.794 557.836 356.754 557.247 355.869C556.659 354.984 555.822 354.293 554.84 353.884C553.859 353.475 552.779 353.366 551.736 353.572C550.693 353.777 549.735 354.287 548.982 355.038C548.229 355.788 547.716 356.745 547.508 357.788C547.299 358.83 547.405 359.91 547.811 360.893C548.217 361.875 548.905 362.715 549.789 363.306C550.672 363.897 551.711 364.212 552.774 364.212C554.194 364.208 555.556 363.643 556.561 362.64C557.567 361.637 558.136 360.278 558.145 358.857Z" fill="#FBA81F" stroke="#263238" stroke-width="1.608" stroke-linecap="round" stroke-linejoin="round"/>
<path d="M182.403 123.221H298.179C300.934 123.221 303.577 124.315 305.525 126.264C307.473 128.212 308.567 130.854 308.567 133.609V213.864H172.064V133.609C172.064 130.862 173.152 128.227 175.089 126.281C177.027 124.334 179.657 123.234 182.403 123.221Z" fill="#FBA81F" stroke="#263238" stroke-width="1.608" stroke-linecap="round" stroke-linejoin="round"/>
<path d="M308.503 200.92H172.064V213.816H308.503V200.92Z" fill="#263238" stroke="#263238" stroke-width="1.608" stroke-linecap="round" stroke-linejoin="round"/>
<path d="M302.263 205.326H178.318V209.41H302.263V205.326Z" fill="white" stroke="#263238" stroke-width="1.608" stroke-linecap="round" stroke-linejoin="round"/>
<path d="M240.292 183.199C250.7 183.199 259.137 174.762 259.137 164.354C259.137 153.945 250.7 145.508 240.292 145.508C229.883 145.508 221.446 153.945 221.446 164.354C221.446 174.762 229.883 183.199 240.292 183.199Z" fill="#263238" stroke="#263238" stroke-width="1.608" stroke-linecap="round" stroke-linejoin="round"/>
<path d="M231.784 152.631L252.125 164.37L231.784 176.108V152.631Z" fill="white" stroke="#263238" stroke-width="1.608" stroke-linecap="round" stroke-linejoin="round"/>
<path d="M249.489 246.828H119.996C117.492 246.828 115.462 248.858 115.462 251.363V300.712C115.462 303.216 117.492 305.247 119.996 305.247H249.489C251.993 305.247 254.023 303.216 254.023 300.712V251.363C254.023 248.858 251.993 246.828 249.489 246.828Z" fill="#263238" stroke="#263238" stroke-width="1.608" stroke-linecap="round" stroke-linejoin="round"/>
<path d="M131.959 254.788L132.635 255.913C129.58 257.618 126.733 260.609 126.733 264.114C126.694 264.716 126.776 265.32 126.973 265.89C127.17 266.461 127.48 266.986 127.882 267.435C128.285 267.884 128.774 268.249 129.319 268.507C129.865 268.765 130.456 268.911 131.059 268.938C131.509 268.938 131.815 268.713 131.815 268.263C131.815 267.812 131.59 267.668 131.139 267.587C130.532 267.423 130.003 267.048 129.647 266.53C129.29 266.011 129.13 265.383 129.194 264.757C129.205 264.258 129.319 263.766 129.526 263.312C129.734 262.858 130.032 262.451 130.402 262.115C130.772 261.78 131.206 261.523 131.679 261.361C132.151 261.199 132.651 261.134 133.149 261.171C133.691 261.173 134.227 261.284 134.725 261.496C135.224 261.709 135.674 262.019 136.051 262.409C136.427 262.799 136.721 263.26 136.916 263.766C137.111 264.271 137.203 264.811 137.185 265.352C137.178 266.033 137.033 266.705 136.759 267.328C136.486 267.951 136.09 268.513 135.595 268.98C135.099 269.447 134.515 269.809 133.877 270.045C133.238 270.281 132.559 270.386 131.879 270.353C131.034 270.408 130.187 270.284 129.392 269.991C128.598 269.697 127.874 269.24 127.268 268.649C126.661 268.057 126.186 267.345 125.872 266.559C125.559 265.772 125.414 264.928 125.447 264.082C125.399 260.014 128.534 256.733 131.959 254.788ZM145.772 254.788L146.448 255.913C143.376 257.618 140.546 260.609 140.546 264.114C140.505 264.717 140.585 265.321 140.781 265.893C140.978 266.464 141.287 266.99 141.69 267.44C142.093 267.889 142.583 268.254 143.129 268.511C143.676 268.768 144.268 268.914 144.872 268.938C145.322 268.938 145.627 268.713 145.627 268.263C145.627 267.812 145.402 267.668 144.952 267.587C144.345 267.423 143.816 267.048 143.46 266.53C143.103 266.011 142.943 265.383 143.006 264.757C143.016 264.257 143.127 263.764 143.334 263.309C143.541 262.854 143.839 262.446 144.21 262.11C144.58 261.774 145.016 261.517 145.489 261.356C145.962 261.195 146.464 261.132 146.962 261.171C147.504 261.173 148.04 261.284 148.538 261.496C149.036 261.709 149.487 262.019 149.863 262.409C150.24 262.799 150.534 263.26 150.729 263.766C150.924 264.271 151.015 264.811 150.998 265.352C150.988 266.032 150.842 266.703 150.568 267.325C150.293 267.947 149.897 268.508 149.402 268.975C148.908 269.441 148.324 269.803 147.687 270.04C147.049 270.277 146.371 270.383 145.692 270.353C144.847 270.405 144.001 270.28 143.208 269.985C142.415 269.691 141.692 269.234 141.086 268.643C140.48 268.052 140.005 267.341 139.69 266.556C139.376 265.77 139.229 264.927 139.26 264.082C139.195 260.014 142.331 256.733 145.772 254.788Z" fill="#FBA81F"/>
<path d="M158.99 266.687H237.846" stroke="white" stroke-width="1.608" stroke-linecap="round" stroke-linejoin="round"/>
<path d="M158.99 273.456H237.846" stroke="white" stroke-width="1.608" stroke-linecap="round" stroke-linejoin="round"/>
<path d="M158.99 280.226H237.846" stroke="white" stroke-width="1.608" stroke-linecap="round" stroke-linejoin="round"/>
<path d="M158.99 287.012H237.846" stroke="white" stroke-width="1.608" stroke-linecap="round" stroke-linejoin="round"/>
<path d="M223.895 395.825C240.171 393.168 251.212 377.82 248.555 361.544C245.898 345.268 230.55 334.227 214.274 336.883C197.998 339.54 186.957 354.888 189.614 371.164C192.27 387.44 207.618 398.481 223.895 395.825Z" fill="#263238" stroke="#263238" stroke-width="1.608" stroke-linecap="round" stroke-linejoin="round"/>
<path d="M238.024 383.015C247.207 372.559 246.175 356.638 235.719 347.455C225.262 338.272 209.342 339.305 200.159 349.761C190.976 360.217 192.008 376.138 202.465 385.321C212.921 394.504 228.841 393.471 238.024 383.015Z" fill="white" stroke="#263238" stroke-width="1.608" stroke-linecap="round" stroke-linejoin="round"/>
<path d="M219.098 348.132V366.351H231.415" stroke="#263238" stroke-width="3.216" stroke-linecap="round" stroke-linejoin="round"/>
<path d="M405.914 366.415C405.914 366.415 423.039 402.965 423.039 404.894C423.039 406.824 407.843 415.089 404.949 416.826C402.704 418.105 400.39 419.259 398.019 420.283L399.755 437.215C399.755 437.215 425.917 431.25 436.884 425.284C447.85 419.318 447.465 412.581 444.924 402.579C442.383 392.577 425.483 353.921 425.483 353.921L405.914 366.415Z" fill="white"/>
<mask id="mask1_67_766" style="mask-type:luminance" maskUnits="userSpaceOnUse" x="398" y="353" width="49" height="85">
<path d="M405.914 366.415C405.914 366.415 423.039 402.965 423.039 404.894C423.039 406.824 407.843 415.089 404.949 416.826C402.704 418.105 400.39 419.259 398.019 420.283L399.755 437.215C399.755 437.215 425.917 431.25 436.884 425.284C447.85 419.318 447.465 412.581 444.924 402.579C442.383 392.577 425.483 353.921 425.483 353.921L405.914 366.415Z" fill="white"/>
</mask>
<g mask="url(#mask1_67_766)">
<g style="mix-blend-mode:multiply" opacity="0.5">
<path d="M436.835 425.284C447.801 419.318 447.415 412.581 444.875 402.579C442.334 392.577 425.434 353.921 425.434 353.921L422.7 355.657L421.832 357.265C421.832 357.265 437.606 395.986 438.555 408.882C439.198 417.549 421.752 428.355 410.222 434.53C418.777 432.263 430.419 428.773 436.835 425.284Z" fill="#FBA81F"/>
</g>
</g>
<path d="M405.914 366.415C405.914 366.415 423.039 402.965 423.039 404.894C423.039 406.824 407.843 415.089 404.949 416.826C402.704 418.105 400.39 419.259 398.019 420.283L399.755 437.215C399.755 437.215 425.917 431.25 436.884 425.284C447.85 419.318 447.465 412.581 444.924 402.579C442.383 392.577 425.483 353.921 425.483 353.921L405.914 366.415Z" stroke="#263238" stroke-width="1.608" stroke-linecap="round" stroke-linejoin="round"/>
<path d="M282.355 358.343C282.355 358.343 269.861 404.123 269.491 412.211C269.121 420.299 294.303 436.25 295.219 437.215C296.136 438.18 293.788 409.397 293.788 409.397L302.327 367.589L282.355 358.343Z" fill="white"/>
<mask id="mask2_67_766" style="mask-type:luminance" maskUnits="userSpaceOnUse" x="269" y="358" width="34" height="80">
<path d="M282.355 358.343C282.355 358.343 269.861 404.123 269.491 412.211C269.121 420.299 294.303 436.25 295.219 437.215C296.136 438.18 293.788 409.397 293.788 409.397L302.327 367.589L282.355 358.343Z" fill="white"/>
</mask>
<g mask="url(#mask2_67_766)">
<g style="mix-blend-mode:multiply" opacity="0.5">
<path d="M288.08 362.089L287.806 360.851L282.355 358.343C282.355 358.343 269.861 404.123 269.491 412.211C269.121 420.299 294.303 436.25 295.219 437.215C295.589 437.601 295.444 433.292 295.139 427.969C287.646 421.618 276.888 412.677 275.634 408.914" fill="#FBA81F"/>
</g>
</g>
<path d="M282.355 358.343C282.355 358.343 269.861 404.123 269.491 412.211C269.121 420.299 294.303 436.25 295.219 437.215C296.136 438.18 293.788 409.397 293.788 409.397L302.327 367.589L282.355 358.343Z" stroke="#263238" stroke-width="1.608" stroke-linecap="round" stroke-linejoin="round"/>
<path d="M341.032 312.354C341.032 312.354 336.208 315.827 326.801 316.213C317.394 316.599 316.944 309.781 305.254 309.781C291.087 309.781 273.319 354.596 273.319 354.596C273.319 354.596 282.163 363.263 290.83 366.913C295.624 369.014 300.665 370.5 305.833 371.335L307.183 400.778H402.602L403.744 371.335L433.572 351.991C433.572 351.991 418.939 325.829 411.832 316.02C404.725 306.211 392.777 309.862 389.127 312.354C385.477 314.846 374.655 315.441 370.667 314.862C365.465 313.711 360.324 312.3 355.263 310.633C355.263 310.633 349.12 305.52 341.032 312.354Z" fill="#FBA81F" stroke="#263238" stroke-width="1.608" stroke-linecap="round" stroke-linejoin="round"/>
<path d="M306.798 322.742L306.412 371.609" stroke="#263238" stroke-width="0.804" stroke-linecap="round" stroke-linejoin="round"/>
<path d="M310.253 327.18C310.253 327.18 311.604 351.026 316.685 364.308" stroke="#263238" stroke-width="0.804" stroke-linecap="round" stroke-linejoin="round"/>
<path d="M317.57 366.222C318.668 369.463 320.017 372.614 321.606 375.645" stroke="#263238" stroke-width="0.804" stroke-linecap="round" stroke-linejoin="round"/>
<path d="M313.326 324.478C315.151 333.149 317.728 341.645 321.028 349.869" stroke="#263238" stroke-width="0.804" stroke-linecap="round" stroke-linejoin="round"/>
<path d="M396.267 328.707C396.267 328.707 391.652 347.569 387.6 356.043" stroke="#263238" stroke-width="0.804" stroke-linecap="round" stroke-linejoin="round"/>
<path d="M403.743 371.416L403.55 333.322" stroke="#263238" stroke-width="0.804" stroke-linecap="round" stroke-linejoin="round"/>
<path d="M401.637 334.094C401.637 334.094 398.164 358.214 389.706 370.837" stroke="#263238" stroke-width="0.804" stroke-linecap="round" stroke-linejoin="round"/>
<path d="M397.407 366.029C397.407 366.029 393.548 373.345 390.862 377.189" stroke="#263238" stroke-width="0.804" stroke-linecap="round" stroke-linejoin="round"/>
<path d="M335.645 315.248C335.645 315.248 338.346 331.795 342.189 340.253C346.032 348.711 352.77 350.448 358.542 347.955C364.315 345.463 368.544 333.129 368.19 317.403" stroke="#263238" stroke-width="0.804" stroke-linecap="round" stroke-linejoin="round"/>
<path d="M321.992 280.612C321.992 280.612 318.326 274.277 315.447 277.541C312.569 280.805 317.763 288.314 320.641 290.807C323.52 293.299 325.642 291.772 325.465 289.086C325.288 286.401 321.992 280.612 321.992 280.612Z" fill="#FBA81F" stroke="#263238" stroke-width="1.608" stroke-linecap="round" stroke-linejoin="round"/>
<path opacity="0.5" d="M321.992 280.612C321.992 280.612 318.326 274.277 315.447 277.541C312.569 280.805 317.763 288.314 320.641 290.807C323.52 293.299 325.642 291.772 325.465 289.086C325.288 286.401 321.992 280.612 321.992 280.612Z" fill="white"/>
<path d="M321.992 280.612C321.992 280.612 318.326 274.277 315.447 277.541C312.569 280.805 317.763 288.314 320.641 290.807C323.52 293.299 325.642 291.772 325.465 289.086C325.288 286.401 321.992 280.612 321.992 280.612Z" stroke="#263238" stroke-width="1.608" stroke-linecap="round" stroke-linejoin="round"/>
<path d="M380.186 280.612C380.186 280.612 383.836 274.277 386.73 277.541C389.625 280.805 384.415 288.314 381.536 290.807C378.658 293.299 376.519 291.772 376.712 289.086C376.905 286.401 380.186 280.612 380.186 280.612Z" fill="#FBA81F" stroke="#263238" stroke-width="1.608" stroke-linecap="round" stroke-linejoin="round"/>
<path opacity="0.5" d="M380.186 280.612C380.186 280.612 383.836 274.277 386.73 277.541C389.625 280.805 384.415 288.314 381.536 290.807C378.658 293.299 376.519 291.772 376.712 289.086C376.905 286.401 380.186 280.612 380.186 280.612Z" fill="white"/>
<path d="M380.186 280.612C380.186 280.612 383.836 274.277 386.73 277.541C389.625 280.805 384.415 288.314 381.536 290.807C378.658 293.299 376.519 291.772 376.712 289.086C376.905 286.401 380.186 280.612 380.186 280.612Z" stroke="#263238" stroke-width="1.608" stroke-linecap="round" stroke-linejoin="round"/>
<path d="M339.294 311.019C341.111 319.23 343.425 327.323 346.225 335.252C349.698 343.903 356.227 343.903 358.928 338.323C361.63 332.743 363.35 311.952 363.35 311.952C363.35 311.952 345.26 314.477 339.294 311.019Z" fill="white" stroke="#263238" stroke-width="1.608" stroke-linecap="round" stroke-linejoin="round"/>
<path d="M322.378 282.735C322.378 282.735 327.379 300.423 336.85 310.826C346.321 321.23 349.714 323.69 354.747 322.935C359.78 322.179 365.135 315.634 372.628 302.031C380.122 288.427 380.668 277.991 381.295 277.026C381.923 276.061 379.687 256.83 368.978 248.549C358.269 240.267 346.273 236.633 335.885 245.67C325.498 254.707 318.905 269.453 322.378 282.735Z" fill="white"/>
<mask id="mask3_67_766" style="mask-type:luminance" maskUnits="userSpaceOnUse" x="321" y="240" width="61" height="84">
<path d="M322.378 282.735C322.378 282.735 327.379 300.423 336.85 310.826C346.321 321.23 349.714 323.69 354.747 322.935C359.78 322.179 365.135 315.634 372.628 302.031C380.122 288.427 380.668 277.991 381.295 277.026C381.923 276.061 379.687 256.83 368.978 248.549C358.269 240.267 346.273 236.633 335.885 245.67C325.498 254.707 318.905 269.453 322.378 282.735Z" fill="white"/>
</mask>
<g mask="url(#mask3_67_766)">
<g style="mix-blend-mode:multiply" opacity="0.5">
<path d="M368.93 248.484C358.156 240.219 346.225 236.569 335.837 245.606C325.449 254.643 318.905 269.453 322.378 282.735C322.378 282.735 323.327 286.144 325.208 290.775C325.203 290.182 325.284 289.591 325.449 289.022C327.749 281.738 334.535 267.636 357.368 274.1C375.506 279.213 373.287 295.164 371.599 303.671L372.58 301.902C380.089 288.25 380.62 277.862 381.247 276.898C381.874 275.933 379.703 256.765 368.93 248.484Z" fill="#FBA81F"/>
</g>
</g>
<path d="M322.378 282.735C322.378 282.735 327.379 300.423 336.85 310.826C346.321 321.23 349.714 323.69 354.747 322.935C359.78 322.179 365.135 315.634 372.628 302.031C380.122 288.427 380.668 277.991 381.295 277.026C381.923 276.061 379.687 256.83 368.978 248.549C358.269 240.267 346.273 236.633 335.885 245.67C325.498 254.707 318.905 269.453 322.378 282.735Z" stroke="#263238" stroke-width="1.608" stroke-linecap="round" stroke-linejoin="round"/>
<path d="M354.7 291.965C354.103 295.72 353.781 299.515 353.735 303.317C353.928 307.16 355.086 308.318 353.349 308.704C351.612 309.09 349.699 306.388 349.699 306.388" stroke="#263238" stroke-width="1.608" stroke-linecap="round" stroke-linejoin="round"/>
<path d="M335.45 295.052C336.565 295.857 337.897 296.306 339.272 296.341C340.646 296.375 341.999 295.993 343.153 295.245" stroke="#263238" stroke-width="1.608" stroke-linecap="round" stroke-linejoin="round"/>
<path d="M359.894 295.052C361.006 295.856 362.335 296.304 363.707 296.339C365.079 296.373 366.429 295.992 367.58 295.245" stroke="#263238" stroke-width="1.608" stroke-linecap="round" stroke-linejoin="round"/>
<path d="M347.735 288.572C347.735 288.572 344.069 279.519 331.961 283.748" stroke="#263238" stroke-width="1.608" stroke-linecap="round" stroke-linejoin="round"/>
<path d="M357.818 287.462C357.818 287.462 360.89 278.602 371.856 283.796" stroke="#263238" stroke-width="1.608" stroke-linecap="round" stroke-linejoin="round"/>
<path d="M350.069 295.711C350.069 300.664 344.392 304.668 337.381 304.668C330.371 304.668 324.678 300.664 324.678 295.711C324.678 290.759 329.985 288.7 336.996 288.7C344.006 288.7 350.069 290.775 350.069 295.711Z" stroke="#263238" stroke-width="1.608" stroke-linecap="round" stroke-linejoin="round"/>
<path d="M379.318 295.711C379.318 300.664 373.625 304.668 366.614 304.668C359.603 304.668 353.927 300.664 353.927 295.711C353.927 290.759 359.218 288.7 366.228 288.7C373.239 288.7 379.318 290.775 379.318 295.711Z" stroke="#263238" stroke-width="1.608" stroke-linecap="round" stroke-linejoin="round"/>
<path d="M217.183 449.967L216.395 644.904C216.395 645.519 216.639 646.108 217.073 646.542C217.507 646.976 218.096 647.22 218.711 647.22C219.309 647.22 219.885 646.987 220.314 646.569C220.744 646.152 220.993 645.583 221.01 644.985L226.574 450.24L217.183 449.967Z" fill="white" stroke="#263238" stroke-width="1.608" stroke-linecap="round" stroke-linejoin="round"/>
<path d="M204.062 495.537L203.306 697.068C203.304 697.373 203.363 697.675 203.478 697.957C203.594 698.239 203.764 698.495 203.98 698.71C204.195 698.926 204.451 699.096 204.733 699.212C205.015 699.327 205.317 699.386 205.622 699.384C206.219 699.384 206.794 699.153 207.226 698.74C207.657 698.326 207.912 697.762 207.937 697.165L213.485 495.795L204.062 495.537Z" fill="white" stroke="#263238" stroke-width="1.608" stroke-linecap="round" stroke-linejoin="round"/>
<path d="M486.684 449.967L487.472 644.904C487.474 645.208 487.416 645.509 487.301 645.789C487.187 646.07 487.018 646.326 486.804 646.541C486.59 646.756 486.336 646.927 486.056 647.043C485.776 647.16 485.476 647.22 485.172 647.22C484.572 647.22 483.995 646.987 483.563 646.57C483.131 646.153 482.878 645.585 482.857 644.985L477.309 450.24L486.684 449.967Z" fill="white" stroke="#263238" stroke-width="1.608" stroke-linecap="round" stroke-linejoin="round"/>
<path d="M499.822 495.537L500.61 697.068C500.612 697.373 500.553 697.675 500.438 697.957C500.322 698.239 500.152 698.495 499.936 698.71C499.721 698.926 499.465 699.096 499.183 699.212C498.901 699.327 498.599 699.386 498.294 699.384C497.698 699.384 497.125 699.153 496.696 698.739C496.267 698.325 496.016 697.76 495.995 697.165L490.431 495.795L499.822 495.537Z" fill="white" stroke="#263238" stroke-width="1.608" stroke-linecap="round" stroke-linejoin="round"/>
<path d="M295.429 503.915L294.962 682.789C294.911 683.235 295.035 683.684 295.308 684.041C295.581 684.397 295.982 684.635 296.426 684.702C296.859 684.642 297.253 684.419 297.528 684.079C297.803 683.738 297.938 683.306 297.905 682.869L301.394 504.124L295.429 503.915Z" fill="white" stroke="#263238" stroke-width="1.608" stroke-linecap="round" stroke-linejoin="round"/>
<path d="M408.647 498.158L409.081 654.263C409.119 654.641 409.009 655.018 408.776 655.318C408.542 655.617 408.203 655.815 407.827 655.871C407.453 655.815 407.115 655.616 406.884 655.317C406.653 655.017 406.547 654.639 406.589 654.263L403.614 498.287L408.647 498.158Z" fill="white" stroke="#263238" stroke-width="1.608" stroke-linecap="round" stroke-linejoin="round"/>
<path d="M293.675 498.158L294.109 654.263C294.146 654.641 294.036 655.018 293.803 655.318C293.57 655.617 293.23 655.815 292.855 655.871C292.48 655.815 292.142 655.616 291.911 655.317C291.681 655.017 291.575 654.639 291.616 654.263L288.642 498.287L293.675 498.158Z" fill="white" stroke="#263238" stroke-width="1.608" stroke-linecap="round" stroke-linejoin="round"/>
<path d="M405.415 503.915L405.914 682.789C405.965 683.235 405.841 683.684 405.568 684.041C405.295 684.397 404.895 684.635 404.451 684.702C404.019 684.639 403.627 684.415 403.353 684.075C403.079 683.735 402.942 683.305 402.971 682.869L399.482 504.124L405.415 503.915Z" fill="white" stroke="#263238" stroke-width="1.608" stroke-linecap="round" stroke-linejoin="round"/>
<path d="M349.634 516.441C389.153 516.441 421.19 509.12 421.19 500.088C421.19 491.056 389.153 483.735 349.634 483.735C310.115 483.735 278.078 491.056 278.078 500.088C278.078 509.12 310.115 516.441 349.634 516.441Z" fill="white" stroke="#263238" stroke-width="1.608" stroke-linecap="round" stroke-linejoin="round"/>
<path d="M314.789 638.907C314.789 638.907 311.042 644.277 313.727 646.947C316.413 649.616 319.082 648.555 318.809 651.24C318.535 653.925 314.258 663.027 310.511 672.675C306.765 682.323 314.531 691.971 321.767 689.301C329.003 686.632 328.199 659.811 329.261 654.987C330.322 650.163 331.142 649.359 330.869 644.808C330.595 640.257 330.338 635.433 326.849 634.887C323.359 634.34 316.397 637.041 314.789 638.907Z" fill="white" stroke="#263238" stroke-width="1.608" stroke-linecap="round" stroke-linejoin="round"/>
<path d="M326.286 681.905C321.462 680.071 314.065 680.441 309.9 680.859C311.299 686.921 316.654 691.183 321.767 689.301C323.906 688.513 325.305 685.651 326.286 681.905Z" fill="#FBA81F" stroke="#263238" stroke-width="1.608" stroke-linecap="round" stroke-linejoin="round"/>
<path d="M306.492 627.12C306.492 627.12 314.258 640.257 316.397 643.731C318.536 647.204 325.788 646.143 326.592 641.319C327.396 636.495 323.633 623.1 323.633 623.1L307.553 627.12H306.492Z" fill="white" stroke="#263238" stroke-width="1.608" stroke-linecap="round" stroke-linejoin="round"/>
<path d="M288 606.216C288 606.216 285.845 609.705 286.922 612.117C288 614.529 290.942 621.492 292.824 624.981C294.705 628.471 303.276 630.609 313.181 629.001C323.086 627.393 328.73 622.827 329.004 618.807C329.277 614.787 327.396 609.432 326.045 603C324.694 596.568 321.221 596.841 316.397 596.841C311.573 596.841 292.02 602.469 288 606.216Z" fill="#FBA81F" stroke="#263238" stroke-width="1.608" stroke-linecap="round" stroke-linejoin="round"/>
<path d="M316.943 527.424C317.088 520.831 320.899 517.583 321.188 513.065C321.642 507.091 321.148 501.083 319.725 495.264L312.393 485.246C291.296 485.52 276.18 485.873 275.939 485.954C275.135 486.211 274.589 490.778 274.058 494.524C274.058 494.524 265.101 495.666 266.709 520.59C266.934 524.063 275.971 564.247 276.631 568.83C280.651 596.825 289.607 610.847 289.607 610.847C289.607 610.847 290.411 614.336 300.863 613.532C311.315 612.728 321.767 605.766 321.767 605.766C321.767 605.766 316.397 551.271 316.943 527.424Z" fill="#263238" stroke="#263238" stroke-width="1.608" stroke-linecap="round" stroke-linejoin="round"/>
<path d="M272.611 490.44C272.611 490.44 261.532 492.048 254.746 499.798C247.96 507.549 253.717 512.662 266.902 511.28C280.088 509.897 295.3 496.406 295.943 495.682C296.586 494.958 282.195 485.793 272.611 490.44Z" fill="white" stroke="#263238" stroke-width="1.608" stroke-linecap="round" stroke-linejoin="round"/>
<path d="M292.277 495.264C299.335 495.627 306.339 496.705 313.181 498.48C322.298 501.165 338.378 506.52 342.125 506.52C345.871 506.52 344.81 492.579 344.81 489.909C344.81 487.24 296.57 485.616 290.669 485.616C284.767 485.616 292.277 495.264 292.277 495.264Z" fill="white" stroke="#263238" stroke-width="1.608" stroke-linecap="round" stroke-linejoin="round"/>
<path d="M344.811 489.909C344.811 489.909 340.517 492.048 338.909 500.088C337.301 508.128 335.163 512.421 338.379 514.56C341.595 516.699 355.536 518.307 357.675 516.168C359.813 514.029 365.715 503.304 366.792 496.341C367.869 489.379 344.811 489.909 344.811 489.909Z" fill="#FBA81F" stroke="#263238" stroke-width="1.608" stroke-linecap="round" stroke-linejoin="round"/>
<path d="M363.029 492.579C360.536 495.439 358.546 498.701 357.143 502.227C356.007 505.917 355.11 509.677 354.458 513.483C359.588 514.889 364.604 516.684 369.461 518.853C378.047 522.6 392.519 525.285 406.445 528.501C420.37 531.717 424.133 534.933 428.957 534.933C433.781 534.933 439.682 531.171 447.191 522.069C454.701 512.968 448.253 493.656 440.759 487.755C433.266 481.853 393.05 477.045 387.695 478.653C382.341 480.261 363.029 492.579 363.029 492.579Z" fill="#263238" stroke="#263238" stroke-width="1.608" stroke-linecap="round" stroke-linejoin="round"/>
<path d="M262.464 511.424C261.405 506.614 259.259 502.109 256.192 498.255C255.694 498.721 255.212 499.204 254.745 499.734C248.78 506.52 252.51 511.344 262.464 511.424Z" fill="#FBA81F" stroke="#263238" stroke-width="1.608" stroke-linecap="round" stroke-linejoin="round"/>
<path d="M316.122 515.67C316.122 515.67 310.591 574.86 299.303 584.074" stroke="white" stroke-width="0.804" stroke-linecap="round" stroke-linejoin="round"/>
<path d="M312.216 571.853C312.216 571.853 307.826 591.149 296.312 598.819" stroke="white" stroke-width="0.804" stroke-linecap="round" stroke-linejoin="round"/>
<path d="M383.401 504.912C383.401 504.912 366.244 505.989 377.5 513.483C388.756 520.976 409.129 525.816 409.129 525.816" stroke="white" stroke-width="0.804" stroke-linecap="round" stroke-linejoin="round"/>
<path d="M507.958 484.635L502.169 479.425L488.79 450.481C488.156 449.164 487.159 448.056 485.918 447.284C484.677 446.512 483.241 446.11 481.779 446.124H221.927C220.462 446.107 219.023 446.508 217.779 447.28C216.534 448.051 215.536 449.162 214.9 450.481L198.225 486.533L195.475 485.52V493.769L195.604 493.672C195.768 494.773 196.326 495.776 197.175 496.495C198.024 497.214 199.106 497.599 200.219 497.58H503.471C504.643 497.606 505.779 497.177 506.64 496.382C507.501 495.587 508.02 494.488 508.086 493.318L507.958 484.635Z" fill="#263238" stroke="#263238" stroke-width="1.608" stroke-linecap="round" stroke-linejoin="round"/>
<path d="M503.472 490.038H200.219C199.468 490.068 198.722 489.906 198.051 489.569C197.379 489.232 196.804 488.729 196.38 488.109C195.956 487.489 195.696 486.771 195.625 486.022C195.554 485.274 195.674 484.52 195.974 483.831L214.9 442.94C215.533 441.618 216.531 440.505 217.776 439.733C219.022 438.961 220.462 438.561 221.927 438.582H481.78C483.243 438.564 484.68 438.965 485.922 439.737C487.164 440.509 488.16 441.62 488.791 442.94L507.717 483.831C508.017 484.52 508.138 485.274 508.067 486.022C507.996 486.771 507.736 487.489 507.312 488.109C506.887 488.729 506.312 489.232 505.641 489.569C504.969 489.906 504.223 490.068 503.472 490.038Z" fill="white" stroke="#263238" stroke-width="1.608" stroke-linecap="round" stroke-linejoin="round"/>
<g style="mix-blend-mode:multiply" opacity="0.5">
<path d="M215.575 462.573C215.575 462.573 208.709 467.285 213.002 469.005C217.295 470.726 266.645 469.44 272.659 467.719C278.673 465.998 285.523 450.127 285.523 447.555C285.523 444.982 276.872 443.133 273.688 442.988C270.504 442.843 228.439 445.4 228.439 445.4L215.575 462.573Z" fill="#FBA81F"/>
</g>
<g style="mix-blend-mode:multiply" opacity="0.5">
<path d="M461.052 470.726C470.768 470.726 478.644 467.458 478.644 463.426C478.644 459.394 470.768 456.125 461.052 456.125C451.337 456.125 443.461 459.394 443.461 463.426C443.461 467.458 451.337 470.726 461.052 470.726Z" fill="#FBA81F"/>
</g>
<g style="mix-blend-mode:multiply" opacity="0.5">
<path d="M349.055 479.747C383.894 479.747 412.137 474.463 412.137 467.944C412.137 461.426 383.894 456.141 349.055 456.141C314.216 456.141 285.973 461.426 285.973 467.944C285.973 474.463 314.216 479.747 349.055 479.747Z" fill="#FBA81F"/>
</g>
<path d="M448.189 434.707C448.189 434.707 447.031 430.092 443.188 431.636C439.345 433.179 439.731 443.374 440.487 449.147C441.242 454.919 446.452 452.218 446.452 452.218V448.761C446.452 448.761 444.539 450.288 443.574 448.182C442.609 446.075 442.802 435.479 443.767 435.672C444.732 435.865 446.645 439.129 446.645 439.129C446.645 439.129 447.224 438.759 448.189 434.707Z" fill="#FBA81F" stroke="#263238" stroke-width="1.608" stroke-linecap="round" stroke-linejoin="round"/>
<path d="M445.423 435.479V460.756C445.423 463.731 452.257 466.143 460.699 466.143C469.141 466.143 475.959 463.731 475.959 460.756V435.479H445.423Z" fill="#FBA81F" stroke="#263238" stroke-width="1.608" stroke-linecap="round" stroke-linejoin="round"/>
<path d="M475.959 435.479C475.959 438.051 469.125 440.126 460.699 440.126C452.273 440.126 445.423 438.051 445.423 435.479C445.423 432.906 452.257 430.831 460.699 430.831C469.141 430.831 475.959 432.922 475.959 435.479Z" fill="white" stroke="#263238" stroke-width="1.608" stroke-linecap="round" stroke-linejoin="round"/>
<path d="M473.964 435.479C473.964 437.714 468.015 439.515 460.698 439.515C453.382 439.515 447.416 437.714 447.416 435.479C447.416 433.243 453.366 431.443 460.698 431.443C468.031 431.443 473.964 433.243 473.964 435.479Z" fill="white" stroke="#263238" stroke-width="1.608" stroke-linecap="round" stroke-linejoin="round"/>
<path d="M450.456 438.051C457.139 440.002 464.242 440.002 470.925 438.051C464.242 436.101 457.139 436.101 450.456 438.051Z" fill="#263238" stroke="#263238" stroke-width="1.608" stroke-linecap="round" stroke-linejoin="round"/>
<path d="M213.677 447.024L213.87 455.675L272.16 456.254V446.252L213.677 447.024Z" fill="white" stroke="#263238" stroke-width="1.608" stroke-linecap="round" stroke-linejoin="round"/>
<path d="M272.16 456.254L280.634 437.987V432.6L271.774 447.989L272.16 456.254Z" fill="white" stroke="#263238" stroke-width="1.608" stroke-linecap="round" stroke-linejoin="round"/>
<path d="M213.677 454.903L213.87 463.57L272.16 464.149V454.148L213.677 454.903Z" fill="white" stroke="#263238" stroke-width="1.608" stroke-linecap="round" stroke-linejoin="round"/>
<path d="M272.16 464.149L280.634 445.866V440.479L271.774 455.868L272.16 464.149Z" fill="white" stroke="#263238" stroke-width="1.608" stroke-linecap="round" stroke-linejoin="round"/>
<path d="M236.19 425.091C236.19 425.091 237.54 422.406 235.611 421.248C233.681 420.09 231.575 422.856 230.417 423.74C229.259 424.625 205.027 440.672 204.255 443.181C203.483 445.689 204.255 451.221 209.449 451.832C214.643 452.443 219.258 448.954 221.573 448.375C223.889 447.796 224.789 447.603 224.789 447.603L240.756 426.056L236.19 425.091Z" fill="white" stroke="#263238" stroke-width="1.608" stroke-linecap="round" stroke-linejoin="round"/>
<path d="M209.449 451.848C214.642 452.427 219.257 448.97 221.573 448.391C223.888 447.812 224.789 447.619 224.789 447.619L225.368 446.831L210.365 443.776C209.549 443.008 208.501 442.534 207.385 442.429C206.27 442.324 205.151 442.594 204.206 443.197C203.483 445.673 204.255 451.253 209.449 451.848Z" fill="white" stroke="#263238" stroke-width="1.608" stroke-linecap="round" stroke-linejoin="round"/>
<path d="M210.413 443.808H255.437C269.491 443.808 273.72 443.036 273.72 443.036L282.371 425.139C282.371 425.139 255.035 426.876 246.593 426.297C243.105 426.196 239.63 425.809 236.205 425.139L210.413 443.808Z" fill="white" stroke="#263238" stroke-width="1.608" stroke-linecap="round" stroke-linejoin="round"/>
<path d="M210.413 443.808L211.185 447.265C211.185 447.265 247.735 447.458 257.351 447.458C266.966 447.458 274.283 447.844 274.283 447.844L273.704 443.02L210.413 443.808Z" fill="white" stroke="#263238" stroke-width="1.608" stroke-linecap="round" stroke-linejoin="round"/>
<path d="M274.282 447.796L282.355 429.32V425.091L273.704 442.988L274.282 447.796Z" fill="white" stroke="#263238" stroke-width="1.608" stroke-linecap="round" stroke-linejoin="round"/>
<path d="M404.145 469.407H293.917C293.672 469.41 293.43 469.363 293.204 469.271C292.978 469.179 292.772 469.043 292.599 468.872C292.425 468.7 292.287 468.495 292.194 468.27C292.1 468.044 292.051 467.802 292.051 467.558C292.051 467.314 292.1 467.072 292.194 466.847C292.287 466.621 292.425 466.417 292.599 466.245C292.772 466.073 292.978 465.937 293.204 465.845C293.43 465.753 293.672 465.707 293.917 465.709H404.145C404.388 465.707 404.63 465.753 404.855 465.845C405.08 465.938 405.285 466.074 405.457 466.246C405.629 466.418 405.766 466.623 405.858 466.848C405.95 467.073 405.996 467.315 405.994 467.558C405.996 467.802 405.95 468.043 405.858 468.268C405.766 468.494 405.629 468.698 405.457 468.871C405.285 469.043 405.08 469.179 404.855 469.271C404.63 469.363 404.388 469.41 404.145 469.407Z" fill="white" stroke="#263238" stroke-width="1.608" stroke-linecap="round" stroke-linejoin="round"/>
<path d="M405.078 465.677H292.968C292.558 465.678 292.163 465.521 291.864 465.24C291.565 464.959 291.385 464.575 291.36 464.165L285.266 390.921C285.239 390.694 285.26 390.464 285.328 390.246C285.397 390.028 285.511 389.827 285.663 389.657C285.815 389.487 286.002 389.35 286.211 389.258C286.419 389.165 286.646 389.118 286.874 389.12H411.188C411.417 389.118 411.643 389.165 411.852 389.258C412.061 389.35 412.247 389.487 412.4 389.657C412.552 389.827 412.666 390.028 412.734 390.246C412.803 390.464 412.824 390.694 412.796 390.921L406.702 464.165C406.677 464.578 406.495 464.965 406.193 465.246C405.89 465.527 405.491 465.682 405.078 465.677Z" fill="white" stroke="#263238" stroke-width="1.608" stroke-linecap="round" stroke-linejoin="round"/>
<path d="M359.604 428.661C359.604 433.034 354.86 436.572 349.023 436.572C343.186 436.572 338.426 433.034 338.426 428.661C338.426 424.287 343.17 420.765 349.023 420.765C354.876 420.765 359.604 424.303 359.604 428.661Z" fill="white" stroke="#263238" stroke-width="1.608" stroke-linecap="round" stroke-linejoin="round"/>
<path d="M469.157 371.448C470.876 370.106 472.085 368.217 472.582 366.093C472.943 364.501 472.905 362.843 472.469 361.269" stroke="#263238" stroke-width="1.608" stroke-linecap="round" stroke-linejoin="round"/>
<path d="M456.325 428.789C456.325 428.789 467.018 422.357 463.529 415.009C460.04 407.66 448.237 402.788 448.237 391.339C448.237 381.466 458.737 377.816 465.587 373.86" stroke="#263238" stroke-width="1.608" stroke-linecap="round" stroke-linejoin="round"/>
<path d="M466.197 428.58C466.197 428.58 472.163 424.609 472.163 418.305C472.163 414.076 467.644 411.31 461.679 404.509" stroke="#263238" stroke-width="1.608" stroke-linecap="round" stroke-linejoin="round"/>
<path d="M458.383 400.392C458.383 400.392 454.475 397.321 457.354 391.548" stroke="#263238" stroke-width="1.608" stroke-linecap="round" stroke-linejoin="round"/>
<path d="M367.853 231.954C369.767 231.552 373.867 229.976 376.633 223.56C376.676 223.463 376.698 223.359 376.7 223.253C376.702 223.147 376.684 223.041 376.645 222.943C376.606 222.844 376.548 222.754 376.474 222.678C376.4 222.602 376.312 222.541 376.215 222.499C376.018 222.417 375.798 222.415 375.6 222.493C375.402 222.571 375.242 222.723 375.154 222.917C372.613 228.802 368.979 230.105 367.467 230.394C370.172 227.121 371.666 223.015 371.696 218.768C371.696 207.609 361.357 198.572 348.605 198.572C335.854 198.572 325.515 207.609 325.515 218.768C325.523 222.844 326.88 226.801 329.374 230.024C326.946 229.896 322.845 230.925 317.651 236.987C317.503 237.14 317.42 237.345 317.42 237.558C317.42 237.771 317.503 237.976 317.651 238.129C317.801 238.253 317.988 238.321 318.182 238.322C318.299 238.322 318.415 238.296 318.52 238.246C318.626 238.196 318.719 238.123 318.793 238.032C325.434 230.298 329.824 231.6 330.708 231.954C329.207 232.78 327.8 233.767 326.512 234.897C319.099 241.57 314.58 254.193 315.159 264.709C315.81 271.684 318.338 278.352 322.475 284.005C327.86 280.152 332.324 275.155 335.549 269.372C337.952 265.125 340.099 260.738 341.981 256.235C341.981 260.946 342.592 266.639 345.068 270.707C346.854 273.92 349.471 276.595 352.645 278.45C355.819 280.306 359.433 281.275 363.11 281.255C364.379 281.274 365.647 281.149 366.888 280.885C366.998 280.858 367.1 280.808 367.188 280.739C367.277 280.67 367.35 280.583 367.403 280.483C373.61 281.802 379.785 281.689 380.733 280.371C382.261 278.264 384.432 271.688 385.155 263.648C386.474 250.012 377.887 238.177 367.853 231.954ZM346.563 269.726C343.444 264.629 343.54 256.315 343.91 251.539L344.119 250.993C344.267 255.905 345.52 260.72 347.783 265.082C350.046 269.444 353.262 273.24 357.192 276.19C359.363 277.691 361.771 278.816 364.316 279.519C360.376 279.792 352.272 279.036 346.563 269.726Z" fill="#263238"/>
<path d="M346.836 244.416C346.836 244.416 345.517 254.161 357.899 263.712C370.28 273.264 382.019 269.501 382.019 269.501" stroke="white" stroke-width="0.804" stroke-linecap="round" stroke-linejoin="round"/>
<path d="M348.652 241.2C348.652 241.2 361.693 260.19 379.703 255.238" stroke="white" stroke-width="0.804" stroke-linecap="round" stroke-linejoin="round"/>
<path d="M342.205 234.881C340.148 233.836 337.845 233.377 335.545 233.553C333.245 233.729 331.038 234.533 329.164 235.878C322.234 240.493 318.76 251.395 318.76 251.395" stroke="white" stroke-width="0.804" stroke-linecap="round" stroke-linejoin="round"/>
<path d="M342.543 240.171C342.543 240.171 336.931 238.675 333.458 242.149C331.765 243.683 330.317 245.467 329.165 247.439" stroke="white" stroke-width="0.804" stroke-linecap="round" stroke-linejoin="round"/>
</svg>
