<svg width="36" height="36" viewBox="0 0 36 36" fill="black" xmlns="http://www.w3.org/2000/svg">
<path fill-rule="evenodd" clip-rule="evenodd" d="M33 18C33 26.2842 26.2843 32.9998 18.0002 32.9998C9.71597 32.9998 3.00031 26.2842 3.00031 18C3.00031 9.71578 9.71597 3.00012 18.0002 3.00012C26.2843 3.00012 33 9.71578 33 18ZM12.3023 16.122V11.6423H10.1836V23.2499H12.3016L12.3038 19.1595C12.3008 18.4725 12.3661 17.9535 12.4958 17.6025C12.6233 17.2523 12.8236 16.9905 13.1033 16.815C13.3763 16.641 13.6913 16.5525 14.0431 16.5525C14.3498 16.5525 14.6041 16.6193 14.8073 16.758C15.0073 16.8872 15.1575 17.0805 15.2333 17.3063C15.3136 17.5365 15.3511 18.0795 15.3511 18.936V23.2499H17.472V18.459C17.472 17.7277 17.436 17.1855 17.3625 16.839C17.2898 16.4895 17.1548 16.173 16.9545 15.8835C16.7573 15.5978 16.4618 15.3615 16.0688 15.1778C15.6554 14.9876 15.2046 14.8925 14.7496 14.8995C13.8008 14.8995 12.9841 15.309 12.3023 16.122ZM23.0947 14.8995C22.146 14.8995 21.3285 15.309 20.6467 16.122V11.6423H18.5303V23.2499H20.649V19.1595C20.649 18.4725 20.7127 17.9535 20.8402 17.6025C20.9692 17.2523 21.1717 16.9905 21.4477 16.815C21.7207 16.641 22.0365 16.5525 22.3867 16.5525C22.6942 16.5525 22.95 16.6193 23.1517 16.758C23.3517 16.8872 23.5019 17.0805 23.5777 17.3063C23.6587 17.5365 23.6985 18.0795 23.6985 18.936V23.2499H25.8164V18.459C25.8164 17.7277 25.7797 17.1855 25.7077 16.839C25.6342 16.4895 25.4985 16.173 25.299 15.8835C25.101 15.5978 24.807 15.3615 24.4155 15.1778C24.021 14.9925 23.5807 14.8995 23.0947 14.8995Z"/>
</svg>
